<?xml version="1.0" encoding="utf-8"?>
<!-- Generator: Adobe Illustrator 26.0.0, SVG Export Plug-In . SVG Version: 6.00 Build 0)  -->
<svg version="1.1"
	 id="レイヤー_1" xmlns:cc="http://creativecommons.org/ns#" xmlns:dc="http://purl.org/dc/elements/1.1/" xmlns:inkscape="http://www.inkscape.org/namespaces/inkscape" xmlns:rdf="http://www.w3.org/1999/02/22-rdf-syntax-ns#" xmlns:svg="http://www.w3.org/2000/svg"
	 xmlns="http://www.w3.org/2000/svg" xmlns:xlink="http://www.w3.org/1999/xlink" x="0px" y="0px" viewBox="0 0 634 396.7"
	 style="enable-background:new 0 0 634 396.7;" xml:space="preserve">
<style type="text/css">
	.st0{fill:none;stroke:#FF0000;stroke-width:1.000000e-03;stroke-linecap:round;stroke-linejoin:round;stroke-miterlimit:11.3386;}
</style>
<g id="p-0">
	<path class="st0" d="M28.6,368.4h270.7c0.2,0,0.3-0.1,0.3-0.3V212.2v-7.1c0-0.2-0.1-0.3-0.3-0.3h-14.9c-0.2,0-0.3,0.1-0.3,0.3v6.8
		c0,0.3,0.3,0,0,0h-13.6c-0.3,0,0,0.3,0,0v-6.8c0-0.2-0.1-0.3-0.3-0.3h-14.2c-0.2,0-0.3,0.1-0.3,0.3v6.8c0,0.3,0.3,0,0,0h-13.6
		c-0.3,0,0,0.3,0,0v-6.8c0-0.2-0.1-0.3-0.3-0.3h-14.2c-0.2,0-0.3,0.1-0.3,0.3v6.8c0,0.3,0.3,0,0,0h-13.6c-0.3,0,0,0.3,0,0v-6.8
		c0-0.2-0.1-0.3-0.3-0.3h-14.2c-0.2,0-0.3,0.1-0.3,0.3v6.8c0,0.3,0.3,0,0,0h-13.6c-0.3,0,0,0.3,0,0v-6.8c0-0.2-0.1-0.3-0.3-0.3
		h-14.2c-0.2,0-0.3,0.1-0.3,0.3v6.8c0,0.3,0.3,0,0,0h-13.6c-0.3,0,0,0.3,0,0v-6.8c0-0.2-0.1-0.3-0.3-0.3h-14.2
		c-0.2,0-0.3,0.1-0.3,0.3v6.8c0,0.3,0.3,0,0,0h-13.6c-0.3,0,0,0.3,0,0v-6.8c0-0.2-0.1-0.3-0.3-0.3h-14.2c-0.2,0-0.3,0.1-0.3,0.3v6.8
		c0,0.3,0.3,0,0,0h-13.6c-0.3,0,0,0.3,0,0v-6.8c0-0.2-0.1-0.3-0.3-0.3H86c-0.2,0-0.3,0.1-0.3,0.3v6.8c0,0.3,0.3,0,0,0H72.1
		c-0.3,0,0,0.3,0,0v-6.8c0-0.2-0.1-0.3-0.3-0.3H57.7c-0.2,0-0.3,0.1-0.3,0.3v6.8c0,0.3,0.3,0,0,0H43.8c-0.3,0,0,0.3,0,0v-6.8
		c0-0.2-0.1-0.3-0.3-0.3H28.6c-0.2,0-0.3,0.1-0.3,0.3v7.1v155.9C28.3,368.2,28.5,368.4,28.6,368.4z"/>
</g>
<g id="p-1">
	<path class="st0" d="M310.5,361.3h15.3c0.3,0,0-0.3,0,0v6.8c0,0.2,0.1,0.3,0.3,0.3h14.2c0.2,0,0.3-0.1,0.3-0.3v-6.8
		c0-0.3-0.3,0,0,0h13.6c0.3,0,0-0.3,0,0v6.8c0,0.2,0.1,0.3,0.3,0.3h14.2c0.2,0,0.3-0.1,0.3-0.3v-6.8c0-0.3-0.3,0,0,0h13.6
		c0.3,0,0-0.3,0,0v6.8c0,0.2,0.1,0.3,0.3,0.3H397c0.2,0,0.3-0.1,0.3-0.3v-6.8c0-0.3-0.3,0,0,0h13.6c0.3,0,0-0.3,0,0v6.8
		c0,0.2,0.1,0.3,0.3,0.3h14.2c0.2,0,0.3-0.1,0.3-0.3v-6.8c0-0.3-0.3,0,0,0h13.6c0.3,0,0-0.3,0,0v6.8c0,0.2,0.1,0.3,0.3,0.3h14.2
		c0.2,0,0.3-0.1,0.3-0.3v-6.8c0-0.3-0.3,0,0,0h13.6c0.3,0,0-0.3,0,0v6.8c0,0.2,0.1,0.3,0.3,0.3H482c0.2,0,0.3-0.1,0.3-0.3v-6.8
		c0-0.3-0.3,0,0,0h13.6c0.3,0,0-0.3,0,0v6.8c0,0.2,0.1,0.3,0.3,0.3h14.2c0.2,0,0.3-0.1,0.3-0.3v-6.8c0-0.3-0.3,0,0,0h13.6
		c0.3,0,0-0.3,0,0v6.8c0,0.2,0.1,0.3,0.3,0.3h14.2c0.2,0,0.3-0.1,0.3-0.3v-6.8c0-0.3-0.3,0,0,0h13.6c0.3,0,0-0.3,0,0v6.8
		c0,0.2,0.1,0.3,0.3,0.3h14.2c0.2,0,0.3-0.1,0.3-0.3v-6.8c0-0.3-0.3,0,0,0h15.3c0.2,0,0.3-0.1,0.3-0.3v-13.9c0-0.3-0.3,0,0,0h6.8
		c0.2,0,0.3-0.1,0.3-0.3v-14.2c0-0.2-0.1-0.3-0.3-0.3h-6.8c-0.3,0,0,0.3,0,0v-13.6c0-0.3-0.3,0,0,0h6.8c0.2,0,0.3-0.1,0.3-0.3v-14.2
		c0-0.2-0.1-0.3-0.3-0.3h-6.8c-0.3,0,0,0.3,0,0v-13.6c0-0.3-0.3,0,0,0h6.8c0.2,0,0.3-0.1,0.3-0.3V276c0-0.2-0.1-0.3-0.3-0.3h-6.8
		c-0.3,0,0,0.3,0,0v-13.6c0-0.3-0.3,0,0,0h6.8c0.2,0,0.3-0.1,0.3-0.3v-14.2c0-0.2-0.1-0.3-0.3-0.3h-6.8c-0.3,0,0,0.3,0,0v-13.6
		c0-0.3-0.3,0,0,0h6.8c0.2,0,0.3-0.1,0.3-0.3v-14.2c0-0.2-0.1-0.3-0.3-0.3h-6.8c-0.3,0,0,0.3,0,0v-13.9c0-0.2-0.1-0.3-0.3-0.3h-15.3
		c-0.3,0,0,0.3,0,0V198c0-0.2-0.1-0.3-0.3-0.3h-14.2c-0.2,0-0.3,0.1-0.3,0.3v6.8c0,0.3,0.3,0,0,0H539c-0.3,0,0,0.3,0,0V198
		c0-0.2-0.1-0.3-0.3-0.3h-14.2c-0.2,0-0.3,0.1-0.3,0.3v6.8c0,0.3,0.3,0,0,0h-13.6c-0.3,0,0,0.3,0,0V198c0-0.2-0.1-0.3-0.3-0.3h-14.2
		c-0.2,0-0.3,0.1-0.3,0.3v6.8c0,0.3,0.3,0,0,0h-13.6c-0.3,0,0,0.3,0,0V198c0-0.2-0.1-0.3-0.3-0.3h-14.2c-0.2,0-0.3,0.1-0.3,0.3v6.8
		c0,0.3,0.3,0,0,0H454c-0.3,0,0,0.3,0,0V198c0-0.2-0.1-0.3-0.3-0.3h-14.2c-0.2,0-0.3,0.1-0.3,0.3v6.8c0,0.3,0.3,0,0,0h-13.6
		c-0.3,0,0,0.3,0,0V198c0-0.2-0.1-0.3-0.3-0.3h-14.2c-0.2,0-0.3,0.1-0.3,0.3v6.8c0,0.3,0.3,0,0,0h-13.6c-0.3,0,0,0.3,0,0V198
		c0-0.2-0.1-0.3-0.3-0.3h-14.2c-0.2,0-0.3,0.1-0.3,0.3v6.8c0,0.3,0.3,0,0,0h-13.6c-0.3,0,0,0.3,0,0V198c0-0.2-0.1-0.3-0.3-0.3h-14.2
		c-0.2,0-0.3,0.1-0.3,0.3v6.8c0,0.3,0.3,0,0,0h-13.6c-0.3,0,0,0.3,0,0V198c0-0.2-0.1-0.3-0.3-0.3h-14.2c-0.2,0-0.3,0.1-0.3,0.3v6.8
		c0,0.3,0.3,0,0,0h-15.3c-0.2,0-0.3,0.1-0.3,0.3V219c0,0.3,0.3,0,0,0h-6.8c-0.2,0-0.3,0.1-0.3,0.3v14.2c0,0.2,0.1,0.3,0.3,0.3h6.8
		c0.3,0,0-0.3,0,0v13.6c0,0.3,0.3,0,0,0h-6.8c-0.2,0-0.3,0.1-0.3,0.3v14.2c0,0.2,0.1,0.3,0.3,0.3h6.8c0.3,0,0-0.3,0,0v13.6
		c0,0.3,0.3,0,0,0h-6.8c-0.2,0-0.3,0.1-0.3,0.3v14.2c0,0.2,0.1,0.3,0.3,0.3h6.8c0.3,0,0-0.3,0,0V304c0,0.3,0.3,0,0,0h-6.8
		c-0.2,0-0.3,0.1-0.3,0.3v14.2c0,0.2,0.1,0.3,0.3,0.3h6.8c0.3,0,0-0.3,0,0v13.6c0,0.3,0.3,0,0,0h-6.8c-0.2,0-0.3,0.1-0.3,0.3v14.2
		c0,0.2,0.1,0.3,0.3,0.3h6.8c0.3,0,0-0.3,0,0V361C310.3,361.1,310.4,361.3,310.5,361.3z"/>
</g>
<g id="p-2">
	<path class="st0" d="M35.7,194.2h14.6c0.3,0,0-0.3,0,0v6.8c0,0.2,0.1,0.3,0.3,0.3h14.2c0.2,0,0.3-0.1,0.3-0.3v-6.8c0-0.3-0.3,0,0,0
		h13.6c0.3,0,0-0.3,0,0v6.8c0,0.2,0.1,0.3,0.3,0.3h14.2c0.2,0,0.3-0.1,0.3-0.3v-6.8c0-0.3-0.3,0,0,0H107c0.3,0,0-0.3,0,0v6.8
		c0,0.2,0.1,0.3,0.3,0.3h14.2c0.2,0,0.3-0.1,0.3-0.3v-6.8c0-0.3-0.3,0,0,0h13.6c0.3,0,0-0.3,0,0v6.8c0,0.2,0.1,0.3,0.3,0.3h14.2
		c0.2,0,0.3-0.1,0.3-0.3v-6.8c0-0.3-0.3,0,0,0h13.6c0.3,0,0-0.3,0,0v6.8c0,0.2,0.1,0.3,0.3,0.3h14.2c0.2,0,0.3-0.1,0.3-0.3v-6.8
		c0-0.3-0.3,0,0,0H192c0.3,0,0-0.3,0,0v6.8c0,0.2,0.1,0.3,0.3,0.3h14.2c0.2,0,0.3-0.1,0.3-0.3v-6.8c0-0.3-0.3,0,0,0h13.6
		c0.3,0,0-0.3,0,0v6.8c0,0.2,0.1,0.3,0.3,0.3h14.2c0.2,0,0.3-0.1,0.3-0.3v-6.8c0-0.3-0.3,0,0,0h13.6c0.3,0,0-0.3,0,0v6.8
		c0,0.2,0.1,0.3,0.3,0.3h14.2c0.2,0,0.3-0.1,0.3-0.3v-6.8c0-0.3-0.3,0,0,0h13.6c0.3,0,0-0.3,0,0v6.8c0,0.2,0.1,0.3,0.3,0.3h14.2
		c0.2,0,0.3-0.1,0.3-0.3v-6.8c0-0.3-0.3,0,0,0h14.6h7.1c0.2,0,0.3-0.1,0.3-0.3v-7.1c0-0.2-0.1-0.3-0.3-0.3h-7.1H35.7h-7.1
		c-0.2,0-0.3,0.1-0.3,0.3v7.1c0,0.2,0.1,0.3,0.3,0.3H35.7z"/>
</g>
<g id="p-3">
	<path class="st0" d="M35.7,183h15.6c0.2,0,0.3-0.1,0.3-0.3v-6.8c0-0.3-0.3,0,0,0h13.6c0.3,0,0-0.3,0,0v6.8c0,0.2,0.1,0.3,0.3,0.3
		h14.2c0.2,0,0.3-0.1,0.3-0.3v-6.8c0-0.3-0.3,0,0,0h13.6c0.3,0,0-0.3,0,0v6.8c0,0.2,0.1,0.3,0.3,0.3H108c0.2,0,0.3-0.1,0.3-0.3v-6.8
		c0-0.3-0.3,0,0,0h13.6c0.3,0,0-0.3,0,0v6.8c0,0.2,0.1,0.3,0.3,0.3h14.2c0.2,0,0.3-0.1,0.3-0.3v-6.8c0-0.3-0.3,0,0,0h13.6
		c0.3,0,0-0.3,0,0v6.8c0,0.2,0.1,0.3,0.3,0.3h14.2c0.2,0,0.3-0.1,0.3-0.3v-6.8c0-0.3-0.3,0,0,0h13.6c0.3,0,0-0.3,0,0v6.8
		c0,0.2,0.1,0.3,0.3,0.3H193c0.2,0,0.3-0.1,0.3-0.3v-6.8c0-0.3-0.3,0,0,0h13.6c0.3,0,0-0.3,0,0v6.8c0,0.2,0.1,0.3,0.3,0.3h14.2
		c0.2,0,0.3-0.1,0.3-0.3v-6.8c0-0.3-0.3,0,0,0h13.6c0.3,0,0-0.3,0,0v6.8c0,0.2,0.1,0.3,0.3,0.3h14.2c0.2,0,0.3-0.1,0.3-0.3v-6.8
		c0-0.3-0.3,0,0,0h13.6c0.3,0,0-0.3,0,0v6.8c0,0.2,0.1,0.3,0.3,0.3h14.2c0.2,0,0.3-0.1,0.3-0.3v-6.8c0-0.3-0.3,0,0,0H292
		c0.3,0,0-0.3,0,0v6.8c0,0.2,0.1,0.3,0.3,0.3h15.6h7.1c0.2,0,0.3-0.1,0.3-0.3v-7.1V165c0-0.2-0.1-0.3-0.3-0.3h-6.8c-0.3,0,0,0.3,0,0
		v-13.6c0-0.3-0.3,0,0,0h6.8c0.2,0,0.3-0.1,0.3-0.3v-10.6v-7.1c0-0.2-0.1-0.3-0.3-0.3h-7.1H35.7h-7.1c-0.2,0-0.3,0.1-0.3,0.3v7.1
		v10.6c0,0.2,0.1,0.3,0.3,0.3h6.8c0.3,0,0-0.3,0,0v13.6c0,0.3,0.3,0,0,0h-6.8c-0.2,0-0.3,0.1-0.3,0.3v10.6v7.1
		c0,0.2,0.1,0.3,0.3,0.3H35.7z"/>
</g>
<g id="p-4">
	<path class="st0" d="M326.1,183h15.6c0.2,0,0.3-0.1,0.3-0.3v-6.8c0-0.3-0.3,0,0,0h13.6c0.3,0,0-0.3,0,0v6.8c0,0.2,0.1,0.3,0.3,0.3
		h14.2c0.2,0,0.3-0.1,0.3-0.3v-6.8c0-0.3-0.3,0,0,0H384c0.3,0,0-0.3,0,0v6.8c0,0.2,0.1,0.3,0.3,0.3h14.2c0.2,0,0.3-0.1,0.3-0.3v-6.8
		c0-0.3-0.3,0,0,0h13.6c0.3,0,0-0.3,0,0v6.8c0,0.2,0.1,0.3,0.3,0.3h14.2c0.2,0,0.3-0.1,0.3-0.3v-6.8c0-0.3-0.3,0,0,0h13.6
		c0.3,0,0-0.3,0,0v6.8c0,0.2,0.1,0.3,0.3,0.3h14.2c0.2,0,0.3-0.1,0.3-0.3v-6.8c0-0.3-0.3,0,0,0H469c0.3,0,0-0.3,0,0v6.8
		c0,0.2,0.1,0.3,0.3,0.3h14.2c0.2,0,0.3-0.1,0.3-0.3v-6.8c0-0.3-0.3,0,0,0h13.6c0.3,0,0-0.3,0,0v6.8c0,0.2,0.1,0.3,0.3,0.3h14.2
		c0.2,0,0.3-0.1,0.3-0.3v-6.8c0-0.3-0.3,0,0,0h13.6c0.3,0,0-0.3,0,0v6.8c0,0.2,0.1,0.3,0.3,0.3h14.2c0.2,0,0.3-0.1,0.3-0.3v-6.8
		c0-0.3-0.3,0,0,0H554c0.3,0,0-0.3,0,0v6.8c0,0.2,0.1,0.3,0.3,0.3h14.2c0.2,0,0.3-0.1,0.3-0.3v-6.8c0-0.3-0.3,0,0,0h13.6
		c0.3,0,0-0.3,0,0v6.8c0,0.2,0.1,0.3,0.3,0.3h15.6h7.1c0.2,0,0.3-0.1,0.3-0.3v-7.1V165c0-0.2-0.1-0.3-0.3-0.3h-6.8c-0.3,0,0,0.3,0,0
		v-13.6c0-0.3-0.3,0,0,0h6.8c0.2,0,0.3-0.1,0.3-0.3v-10.6c0-0.2-0.1-0.3-0.3-0.3h-7.1c-0.2,0-0.3,0.1-0.3,0.3v6.8c0,0.3,0.3,0,0,0
		H326.4c-0.3,0,0,0.3,0,0v-6.8c0-0.2-0.1-0.3-0.3-0.3H319c-0.2,0-0.3,0.1-0.3,0.3v10.6c0,0.2,0.1,0.3,0.3,0.3h6.8c0.3,0,0-0.3,0,0
		v13.6c0,0.3,0.3,0,0,0H319c-0.2,0-0.3,0.1-0.3,0.3v10.6v7.1c0,0.2,0.1,0.3,0.3,0.3H326.1z"/>
</g>
<g id="p-5">
	<path class="st0" d="M35.7,129.3h14.2c0.2,0,0.3-0.1,0.3-0.3v-6.8c0-0.3-0.3,0,0,0h13.6c0.3,0,0-0.3,0,0v6.8c0,0.2,0.1,0.3,0.3,0.3
		h14.2c0.2,0,0.3-0.1,0.3-0.3v-6.8c0-0.3-0.3,0,0,0h13.6c0.3,0,0-0.3,0,0v6.8c0,0.2,0.1,0.3,0.3,0.3h14.2c0.2,0,0.3-0.1,0.3-0.3
		v-6.8c0-0.3-0.3,0,0,0h13.6c0.3,0,0-0.3,0,0v6.8c0,0.2,0.1,0.3,0.3,0.3h14.2c0.2,0,0.3-0.1,0.3-0.3v-6.8c0-0.3-0.3,0,0,0h13.6
		c0.3,0,0-0.3,0,0v6.8c0,0.2,0.1,0.3,0.3,0.3h14.2c0.2,0,0.3-0.1,0.3-0.3v-6.8c0-0.3-0.3,0,0,0h13.6c0.3,0,0-0.3,0,0v6.8
		c0,0.2,0.1,0.3,0.3,0.3h14.2c0.2,0,0.3-0.1,0.3-0.3v-7.1v-10.3c0-0.3-0.3,0,0,0h6.8c0.2,0,0.3-0.1,0.3-0.3V97.1
		c0-0.2-0.1-0.3-0.3-0.3h-6.8c-0.3,0,0,0.3,0,0V86.5v-7.1c0-0.2-0.1-0.3-0.3-0.3h-14.2c-0.2,0-0.3,0.1-0.3,0.3v6.8c0,0.3,0.3,0,0,0
		h-13.6c-0.3,0,0,0.3,0,0v-6.8c0-0.2-0.1-0.3-0.3-0.3h-14.2c-0.2,0-0.3,0.1-0.3,0.3v6.8c0,0.3,0.3,0,0,0h-13.6c-0.3,0,0,0.3,0,0
		v-6.8c0-0.2-0.1-0.3-0.3-0.3h-14.2c-0.2,0-0.3,0.1-0.3,0.3v6.8c0,0.3,0.3,0,0,0h-13.6c-0.3,0,0,0.3,0,0v-6.8c0-0.2-0.1-0.3-0.3-0.3
		H92.4c-0.2,0-0.3,0.1-0.3,0.3v6.8c0,0.3,0.3,0,0,0H78.5c-0.3,0,0,0.3,0,0v-6.8c0-0.2-0.1-0.3-0.3-0.3H64.1c-0.2,0-0.3,0.1-0.3,0.3
		v6.8c0,0.3,0.3,0,0,0H50.2c-0.3,0,0,0.3,0,0v-6.8c0-0.2-0.1-0.3-0.3-0.3H35.7c-0.2,0-0.3,0.1-0.3,0.3v7.1v10.3c0,0.3,0.3,0,0,0
		h-6.8c-0.2,0-0.3,0.1-0.3,0.3v14.2c0,0.2,0.1,0.3,0.3,0.3h6.8c0.3,0,0-0.3,0,0v10.3v7.1C35.4,129.1,35.6,129.3,35.7,129.3z"/>
</g>
<g id="p-6">
	<path class="st0" d="M209.9,129.3h14.2c0.2,0,0.3-0.1,0.3-0.3v-6.8c0-0.3-0.3,0,0,0H238c0.3,0,0-0.3,0,0v6.8c0,0.2,0.1,0.3,0.3,0.3
		h14.2c0.2,0,0.3-0.1,0.3-0.3v-6.8c0-0.3-0.3,0,0,0h13.6c0.3,0,0-0.3,0,0v6.8c0,0.2,0.1,0.3,0.3,0.3h14.2c0.2,0,0.3-0.1,0.3-0.3
		v-6.8c0-0.3-0.3,0,0,0h13.6c0.3,0,0-0.3,0,0v6.8c0,0.2,0.1,0.3,0.3,0.3h14.2c0.2,0,0.3-0.1,0.3-0.3v-6.8c0-0.3-0.3,0,0,0H323
		c0.3,0,0-0.3,0,0v6.8c0,0.2,0.1,0.3,0.3,0.3h14.2c0.2,0,0.3-0.1,0.3-0.3v-6.8c0-0.3-0.3,0,0,0h13.6c0.3,0,0-0.3,0,0v6.8
		c0,0.2,0.1,0.3,0.3,0.3h14.2c0.2,0,0.3-0.1,0.3-0.3v-7.1v-10.3c0-0.3-0.3,0,0,0h6.8c0.2,0,0.3-0.1,0.3-0.3V97.1
		c0-0.2-0.1-0.3-0.3-0.3h-6.8c-0.3,0,0,0.3,0,0V86.5v-7.1c0-0.2-0.1-0.3-0.3-0.3h-14.2c-0.2,0-0.3,0.1-0.3,0.3v6.8c0,0.3,0.3,0,0,0
		h-13.6c-0.3,0,0,0.3,0,0v-6.8c0-0.2-0.1-0.3-0.3-0.3h-14.2c-0.2,0-0.3,0.1-0.3,0.3v6.8c0,0.3,0.3,0,0,0h-13.6c-0.3,0,0,0.3,0,0
		v-6.8c0-0.2-0.1-0.3-0.3-0.3h-14.2c-0.2,0-0.3,0.1-0.3,0.3v6.8c0,0.3,0.3,0,0,0h-13.6c-0.3,0,0,0.3,0,0v-6.8c0-0.2-0.1-0.3-0.3-0.3
		h-14.2c-0.2,0-0.3,0.1-0.3,0.3v6.8c0,0.3,0.3,0,0,0h-13.6c-0.3,0,0,0.3,0,0v-6.8c0-0.2-0.1-0.3-0.3-0.3h-14.2
		c-0.2,0-0.3,0.1-0.3,0.3v6.8c0,0.3,0.3,0,0,0h-13.6c-0.3,0,0,0.3,0,0v-6.8c0-0.2-0.1-0.3-0.3-0.3h-14.2c-0.2,0-0.3,0.1-0.3,0.3v7.1
		v10.3c0,0.3,0.3,0,0,0h-6.8c-0.2,0-0.3,0.1-0.3,0.3v14.2c0,0.2,0.1,0.3,0.3,0.3h6.8c0.3,0,0-0.3,0,0v10.3v7.1
		C209.6,129.1,209.7,129.3,209.9,129.3z"/>
</g>
<g id="p-7">
	<path class="st0" d="M28.6,75.5h49.6c0.2,0,0.3-0.1,0.3-0.3v7.1c0-4.9,1.3-9.8,3.8-14c2.5-4.3,6-7.8,10.3-10.3
		c4.3-2.5,9.1-3.8,14-3.8c4.9,0,9.8,1.3,14,3.8s7.8,6,10.3,10.3c2.5,4.3,3.8,9.1,3.8,14v-7.1c0,0.2,0.1,0.3,0.3,0.3h49.6
		c0.2,0,0.3-0.1,0.3-0.3V46.9c0-0.2-0.1-0.3-0.3-0.3H28.6c-0.2,0-0.3,0.1-0.3,0.3v28.3C28.3,75.4,28.5,75.5,28.6,75.5z"/>
</g>
<g id="p-8">
	<path class="st0" d="M188.6,75.5h49.6c0.2,0,0.3-0.1,0.3-0.3v7.1c0-4.9,1.3-9.8,3.8-14c2.5-4.3,6-7.8,10.3-10.3
		c4.3-2.5,9.1-3.8,14-3.8c4.9,0,9.8,1.3,14,3.8c4.3,2.5,7.8,6,10.3,10.3c2.5,4.3,3.8,9.1,3.8,14v-7.1c0,0.2,0.1,0.3,0.3,0.3h49.6
		c0.2,0,0.3-0.1,0.3-0.3V46.9c0-0.2-0.1-0.3-0.3-0.3H188.6c-0.2,0-0.3,0.1-0.3,0.3v28.3C188.4,75.4,188.5,75.5,188.6,75.5z"/>
</g>
<g id="p-9">
	<path class="st0" d="M28.6,43.1h155.9c0.2,0,0.3-0.1,0.3-0.3v-7.1c0-0.2-0.1-0.3-0.3-0.3h-13.9c-0.3,0,0,0.3,0,0v-6.8
		c0-0.2-0.1-0.3-0.3-0.3h-14.2c-0.2,0-0.3,0.1-0.3,0.3v6.8c0,0.3,0.3,0,0,0h-13.6c-0.3,0,0,0.3,0,0v-6.8c0-0.2-0.1-0.3-0.3-0.3
		h-14.2c-0.2,0-0.3,0.1-0.3,0.3v6.8c0,0.3,0.3,0,0,0H114c-0.3,0,0,0.3,0,0v-6.8c0-0.2-0.1-0.3-0.3-0.3H99.5c-0.2,0-0.3,0.1-0.3,0.3
		v6.8c0,0.3,0.3,0,0,0H85.6c-0.3,0,0,0.3,0,0v-6.8c0-0.2-0.1-0.3-0.3-0.3H71.1c-0.2,0-0.3,0.1-0.3,0.3v6.8c0,0.3,0.3,0,0,0H57.3
		c-0.3,0,0,0.3,0,0v-6.8c0-0.2-0.1-0.3-0.3-0.3H42.8c-0.2,0-0.3,0.1-0.3,0.3v6.8c0,0.3,0.3,0,0,0H28.6c-0.2,0-0.3,0.1-0.3,0.3v7.1
		C28.3,43,28.5,43.1,28.6,43.1z"/>
</g>
<g id="p-10">
	<path class="st0" d="M188.6,36h13.9c0.3,0,0-0.3,0,0v6.8c0,0.2,0.1,0.3,0.3,0.3H217c0.2,0,0.3-0.1,0.3-0.3V36c0-0.3-0.3,0,0,0h13.6
		c0.3,0,0-0.3,0,0v6.8c0,0.2,0.1,0.3,0.3,0.3h14.2c0.2,0,0.3-0.1,0.3-0.3V36c0-0.3-0.3,0,0,0h13.6c0.3,0,0-0.3,0,0v6.8
		c0,0.2,0.1,0.3,0.3,0.3h14.2c0.2,0,0.3-0.1,0.3-0.3V36c0-0.3-0.3,0,0,0h13.6c0.3,0,0-0.3,0,0v6.8c0,0.2,0.1,0.3,0.3,0.3H302
		c0.2,0,0.3-0.1,0.3-0.3V36c0-0.3-0.3,0,0,0h13.6c0.3,0,0-0.3,0,0v6.8c0,0.2,0.1,0.3,0.3,0.3h14.2c0.2,0,0.3-0.1,0.3-0.3V36
		c0-0.3-0.3,0,0,0h13.9c0.2,0,0.3-0.1,0.3-0.3v-7.1c0-0.2-0.1-0.3-0.3-0.3H188.6c-0.2,0-0.3,0.1-0.3,0.3v7.1
		C188.4,35.9,188.5,36,188.6,36z"/>
</g>
<image style="overflow:visible;" width="736" height="666" xlink:href="S__86999043.jpg"  transform="matrix(9.628552e-02 0 0 9.628552e-02 216.9921 296.6504)">
</image>
<image style="overflow:visible;" width="733" height="237" xlink:href="S__86999047.jpg"  transform="matrix(7.734367e-02 0 0 7.734367e-02 46.6535 338.9153)">
</image>
<image style="overflow:visible;" width="692" height="629" xlink:href="S__86999049.jpg"  transform="matrix(9.831141e-02 0 0 9.831141e-02 154.3465 296.6504)">
</image>
</svg>
